<svg xmlns="http://www.w3.org/2000/svg" viewBox="0 0 305.05 398.75"><defs><style>.cls-1{fill:#296434;}</style></defs><title>NABARD</title><g id="Layer_2" data-name="Layer 2"><g id="Layer_1-2" data-name="Layer 1"><path class="cls-1" d="M289.45,389.35a18.09,18.09,0,0,0,1.34-3.12,21.76,21.76,0,0,0,.92-3.66c.22-1.3.41-2.72.53-4.21s.18-3.11.18-4.82a39.67,39.67,0,0,0-1-9.18,24.35,24.35,0,0,0-1.14-3.84,22.06,22.06,0,0,0-1.64-3.22,13,13,0,0,0-4.53-4.52,12.62,12.62,0,0,0-2.91-1.19,13,13,0,0,0-3.31-.41l-1.16,0c-.43,0-.88,0-1.36,0s-.85.06-1.22.06h-.85v38.32c0,.44,0,.84.05,1.22a6.84,6.84,0,0,0,.2,1,3.51,3.51,0,0,0,.43.92,6.2,6.2,0,0,0,.61.84,8.57,8.57,0,0,0,.83.66,7.62,7.62,0,0,0,1,.5,4.77,4.77,0,0,0,1.21.29c.45,0,1,.07,1.51.07a14.25,14.25,0,0,0,3.34-.36,9,9,0,0,0,2.8-1.1,10.53,10.53,0,0,0,2.34-1.86,12.12,12.12,0,0,0,1.81-2.51m6.47-36.21a22.53,22.53,0,0,1,6.6,8.09,21.9,21.9,0,0,1,1.9,5.59,32.66,32.66,0,0,1,.63,6.72,30.72,30.72,0,0,1-.55,6,20.45,20.45,0,0,1-1.72,5.14,22.25,22.25,0,0,1-5.95,7.79,23.57,23.57,0,0,1-4,2.64,28.19,28.19,0,0,1-4.58,1.88,35.75,35.75,0,0,1-4.95,1.08,33.44,33.44,0,0,1-5.14.38h-22.6v-2.77a18.35,18.35,0,0,0,2.53-.22c.49-.07.9-.14,1.25-.22a3.3,3.3,0,0,0,.75-.22,4.08,4.08,0,0,0,1-.61,2.84,2.84,0,0,0,.64-.85,5.49,5.49,0,0,0,.39-2.18V355.62a6.14,6.14,0,0,0-.39-2.19,2.32,2.32,0,0,0-.63-.88,4.68,4.68,0,0,0-1-.72,11.54,11.54,0,0,0-1.2-.48,9.77,9.77,0,0,0-1.32-.32c-.46-.07-.85-.14-1.21-.17l-.85-.12V348h23.81a29,29,0,0,1,4,.27,36.64,36.64,0,0,1,4.23.83,20.73,20.73,0,0,1,4.29,1.57,28.05,28.05,0,0,1,4.13,2.5m-62,7.8c0-3.36-.84-5.83-2.52-7.43a8.3,8.3,0,0,0-3.06-1.74,13.05,13.05,0,0,0-4.14-.59h-2.45v21.2h2.4a11.18,11.18,0,0,0,4.12-.71,7.81,7.81,0,0,0,3.05-2.07,8.69,8.69,0,0,0,1.95-3.54,18.47,18.47,0,0,0,.65-5.12m21.5,37.52H238.24q-2.24-3.82-4.11-6.89t-3.34-5.35q-1.46-2.3-3.29-4.93t-4-5.64h-1.74V391a5.36,5.36,0,0,0,.38,2.18,3.26,3.26,0,0,0,.64.81,3.62,3.62,0,0,0,1,.65,3.87,3.87,0,0,0,.8.29l1.08.29c.44.11.85.2,1.22.27l1,.17v2.77H203.93v-2.77l1.06-.14c.39-.07.85-.11,1.33-.15a12.83,12.83,0,0,0,1.32-.24,2.8,2.8,0,0,0,.82-.27,3.84,3.84,0,0,0,1-.65,2.44,2.44,0,0,0,.62-.81,5.38,5.38,0,0,0,.38-2.19V355.62a10.41,10.41,0,0,0-.05-1.17,4,4,0,0,0-.27-.94,2.54,2.54,0,0,0-.59-.83,4.77,4.77,0,0,0-1.09-.7,10.53,10.53,0,0,0-1.1-.43c-.42-.14-.85-.26-1.3-.37s-.85-.16-1.21-.25-.67-.16-.92-.19V348h25.12a32.9,32.9,0,0,1,7.43.75,16.36,16.36,0,0,1,5.38,2.24,9.21,9.21,0,0,1,3.32,3.71,11.84,11.84,0,0,1,1.08,5.25,12.66,12.66,0,0,1-2.71,8.52,13.6,13.6,0,0,1-3.42,2.89,21,21,0,0,1-4.81,2.14c.71,1,1.49,2.18,2.33,3.4s1.76,2.5,2.73,3.89,1.91,2.76,2.89,4.16,2,2.79,3.06,4.21c.32.48.7,1,1.13,1.58s.94,1.19,1.52,1.84a11.69,11.69,0,0,0,1.59,1.62A4.46,4.46,0,0,0,252,395a6.71,6.71,0,0,0,.82.22c.32.08.67.15,1.07.22a8.19,8.19,0,0,0,1.55.22ZM180,378.05l-6.53-18.27L167,378.05Zm23.57,20.41H179.07v-2.77a16.17,16.17,0,0,0,1.89-.25c.67-.14,1.37-.3,2.11-.48,1.56-.36,2.34-.8,2.34-1.3,0-.12,0-.23,0-.34a1.26,1.26,0,0,0-.05-.33,1.94,1.94,0,0,0-.08-.45c-.06-.14-.12-.31-.18-.49l-3.83-10.49H165.8c-.2.47-.4,1-.6,1.57s-.41,1.19-.63,1.85l-.58,1.86c-.18.58-.37,1.13-.52,1.64s-.37,1.21-.48,1.68a7.92,7.92,0,0,0-.24,1.15c0,.3-.06.55-.09.76a3.24,3.24,0,0,0,0,.48c0,.81.51,1.46,1.54,2a11.05,11.05,0,0,0,2.05.69,22.22,22.22,0,0,0,3.08.47v2.77H150.9v-2.77c.33,0,.69-.09,1.07-.16l1.26-.2a7.19,7.19,0,0,0,1.19-.4,4.17,4.17,0,0,0,.89-.48,13.65,13.65,0,0,0,1.19-.94,6.25,6.25,0,0,0,1-1.17,10.61,10.61,0,0,0,.83-1.32,13.28,13.28,0,0,0,.67-1.6c1.23-3.34,2.45-6.69,3.69-10s2.46-6.66,3.69-10l3.87-10.56c1.37-3.69,2.77-7.54,4.22-11.59h6.35q6.19,17.16,9.7,27.1c1.17,3.32,2.25,6.35,3.25,9.12s1.91,5.24,2.7,7.42c.17.36.33.7.51,1a6.67,6.67,0,0,0,.53.94c.24.25.49.52.8.81a7.21,7.21,0,0,0,1,.79,5.38,5.38,0,0,0,1,.48,9.07,9.07,0,0,0,1.11.4,8.27,8.27,0,0,0,1.12.23c.36.06.7.09,1,.13Zm-66-14.14a14.11,14.11,0,0,0-.71-4.65,9.2,9.2,0,0,0-2.07-3.43,9,9,0,0,0-3.42-2.06,13.49,13.49,0,0,0-4.61-.71h-1.62c-.32,0-.6.06-.83.07a2.8,2.8,0,0,0-.59.08v18.43a3.15,3.15,0,0,0,.58,1.21,5.46,5.46,0,0,0,1.16,1.05A5.74,5.74,0,0,0,127,395a8.31,8.31,0,0,0,2,.22,8.06,8.06,0,0,0,3.38-.72,7.53,7.53,0,0,0,2.69-2.12,10,10,0,0,0,1.79-3.44,15.58,15.58,0,0,0,.61-4.58m-2.26-24.19a13,13,0,0,0-.5-3.77,7.23,7.23,0,0,0-1.57-2.78,6.71,6.71,0,0,0-2.64-1.81,10.43,10.43,0,0,0-3.71-.59l-.68,0a7.83,7.83,0,0,1-.87,0,7.12,7.12,0,0,1-.89.06h-.73V370h1.62a13.67,13.67,0,0,0,4.47-.66,7.27,7.27,0,0,0,3.1-2,8.43,8.43,0,0,0,1.81-3.12,13.26,13.26,0,0,0,.59-4.1m10.23,15.16a12.3,12.3,0,0,1,1.79,1.75,14.24,14.24,0,0,1,1.45,2.18,11.9,11.9,0,0,1,1,2.58,12.66,12.66,0,0,1,.33,3,17.08,17.08,0,0,1-.36,3.58,13.37,13.37,0,0,1-1.07,3,10.2,10.2,0,0,1-1.75,2.35,11.13,11.13,0,0,1-2.39,1.81,16.46,16.46,0,0,1-3.06,1.39,28.28,28.28,0,0,1-3.47.94,51.61,51.61,0,0,1-8.74.66H105.84v-2.77l1.12-.16,1.35-.2,1.25-.22a7.42,7.42,0,0,0,.82-.22,3.72,3.72,0,0,0,1-.65,3.17,3.17,0,0,0,.63-.81,4.37,4.37,0,0,0,.3-1,6.77,6.77,0,0,0,.1-1.26V355.62a10.08,10.08,0,0,0-.07-1.17,3.19,3.19,0,0,0-.26-.94,2.54,2.54,0,0,0-.59-.83,4.77,4.77,0,0,0-1.09-.7c-.33-.15-.68-.3-1.06-.43a9.15,9.15,0,0,0-1.2-.3c-.43-.11-.83-.21-1.22-.28l-1.06-.23V348h24.35a38.62,38.62,0,0,1,7.92.7,14.94,14.94,0,0,1,5.35,2.14,9.27,9.27,0,0,1,3.07,3.53,11.18,11.18,0,0,1,1,4.85,13.17,13.17,0,0,1-.2,2.42,8.43,8.43,0,0,1-.7,2.09,7.55,7.55,0,0,1-1.1,1.81,10.9,10.9,0,0,1-1.49,1.55,19.16,19.16,0,0,1-1.7,1.25,17.87,17.87,0,0,1-2.05,1.08c-.72.29-1.46.58-2.21.85a19.4,19.4,0,0,1-2.4.68v.73a17.6,17.6,0,0,1,2.55.42,26.36,26.36,0,0,1,2.58.82,15.1,15.1,0,0,1,4.66,2.4m-63.58,2.76-6.54-18.27-6.41,18.27Zm23.57,20.41H81v-2.77a16.17,16.17,0,0,0,1.89-.25c.66-.14,1.37-.3,2.11-.48,1.57-.36,2.34-.8,2.34-1.3,0-.12,0-.23,0-.34a1,1,0,0,0-.06-.33,1.9,1.9,0,0,0-.07-.45c-.06-.14-.11-.31-.18-.49l-3.83-10.49H67.71c-.19.47-.38,1-.59,1.57s-.41,1.19-.63,1.85-.4,1.28-.58,1.86-.37,1.13-.53,1.64-.36,1.21-.47,1.68a5.74,5.74,0,0,0-.23,1.15c0,.3-.07.55-.1.76a3.62,3.62,0,0,0,0,.48c0,.81.51,1.46,1.55,2a10.69,10.69,0,0,0,2.06.69,22.12,22.12,0,0,0,3.06.47v2.77H52.82v-2.77c.32,0,.68-.09,1.07-.16l1.27-.2a7.06,7.06,0,0,0,1.18-.4,4.42,4.42,0,0,0,.89-.48,13.65,13.65,0,0,0,1.19-.94,5.58,5.58,0,0,0,1-1.17,10,10,0,0,0,1.5-2.92c1.22-3.34,2.45-6.69,3.69-10s2.45-6.66,3.69-10,2.52-6.88,3.87-10.56,2.76-7.54,4.21-11.59h6.35q6.21,17.16,9.71,27.1c1.17,3.32,2.24,6.35,3.25,9.12s1.91,5.24,2.71,7.42c.16.36.32.7.5,1a6.73,6.73,0,0,0,.54.94c.22.25.49.52.78.81a7.32,7.32,0,0,0,1,.79,5.74,5.74,0,0,0,1,.48,9.72,9.72,0,0,0,1.11.4,8.46,8.46,0,0,0,1.11.23c.37.06.7.09,1,.13ZM54,350.74c-.58.07-1.41.22-2.52.44a5.38,5.38,0,0,0-1.58.44,4.61,4.61,0,0,0-1.39.94,3.49,3.49,0,0,0-1,1.25,7.91,7.91,0,0,0-.68,2,21.68,21.68,0,0,0-.35,2.85c-.07,1.13-.1,2.47-.1,4v36.07H40.71l-28-39.05v23.67c0,1.5,0,2.8.13,3.91a22.77,22.77,0,0,0,.39,2.8,8.4,8.4,0,0,0,.67,2,5.48,5.48,0,0,0,1,1.41,5,5,0,0,0,1.12.71,13.35,13.35,0,0,0,1.6.67l1.68.48c.51.14.94.25,1.3.32v2.77H1.36v-2.77a11.74,11.74,0,0,0,1.33-.21l1.51-.3a9.37,9.37,0,0,0,1.44-.54,5.9,5.9,0,0,0,1.22-.77,4.53,4.53,0,0,0,1.06-1.26,6.05,6.05,0,0,0,.62-1.8,16.79,16.79,0,0,0,.34-2.8q.12-1.74.12-4.2V359.92a12.77,12.77,0,0,0-.12-1.78,9.48,9.48,0,0,0-.34-1.65,7,7,0,0,0-.62-1.43A8.52,8.52,0,0,0,7,353.8a8.59,8.59,0,0,0-1.17-1.09,6.88,6.88,0,0,0-1.36-.81,18.94,18.94,0,0,0-3.29-1.09V348H18.06l24.53,34.17V363.05c0-1.53,0-2.87-.13-4a18,18,0,0,0-.39-2.78,9.13,9.13,0,0,0-.71-2,5.92,5.92,0,0,0-1-1.37,7.1,7.1,0,0,0-1.11-.75,9.49,9.49,0,0,0-1.61-.63l-1.6-.49c-.48-.13-.93-.24-1.32-.31V348H54Z"/><path class="cls-1" d="M154.24,160.71A28,28,0,0,0,177,133.4c0-15.23-12.93-27.56-28-27.56a27.58,27.58,0,0,0-4.13,54.78s1.31.52,1.56-1.76a22.14,22.14,0,0,0,0-4.42s-.44-1.69-1-3.31c0,0-4.3-8.78-3.85-18.35s6-12.33,7.3-21.33c0,0,4.51,9.86,7,16.69a20.91,20.91,0,0,1,.15,14.5c-.87,2.91-3.23,8.7-3.52,11.9s-.29,4.34-.29,4.34a1.8,1.8,0,0,0,1.93,1.83m2.22,1.54a30.9,30.9,0,0,0,16.69-10.91,30.66,30.66,0,1,0-29.53,11.38,4.54,4.54,0,0,1,3.86,1.89,3.86,3.86,0,0,1,.65,1.77s.49,13.29.35,15.84-2.34.2-2.34.2c-.95-10.67-11.23-18.32-20.41-22.88a28.29,28.29,0,0,1-10.9-9.63c-3.24-5.22-3.13-13.11-3.13-13.11-7.49,19.91.73,33.38.73,33.38,7,11.07,14.69,12.58,24.84,17.77,5.28,2.7,3.73,5.18,2.51,5.37-14.44-2.09-25.3-9.45-33.76-19.48a57.69,57.69,0,0,1-13.59-37.28c0-31.7,25.37-57.41,56.64-57.41s56.62,25.71,56.62,57.41c0,28.2-19.14,51.81-45.65,56.64-1.45.33-5.08-2,1.27-5.08,4.05-2,12-4.29,18.3-9.86S188.9,167,190,157.66a41.8,41.8,0,0,0-2.77-20.75s-.32,8.61-3.55,13.22-5,5.53-12.23,10.3-13.79,8.76-16.26,13.83-2.49,8.15-2.49,8.15-2.16,2.46-2.16-.46.46-15.37.46-15.37a2.81,2.81,0,0,1,.47-1.81c.63-1,2-2,5-2.52M164.17,238c49-7.18,86.37-49.65,86.37-100.67A101.42,101.42,0,1,0,133.68,237.7s.76-4-15.71-11.3-35.72-14-40.66-29.48.18-37.16.32-51.57c0,0,1.54,13.85,6.29,24.36,6.81,15.08,19.46,20.41,33.42,26.42,0,0,15.54,5.8,21.13,13a20.6,20.6,0,0,1,4.6,8.09c.75,2.38,3.21,2.33,3.31.12a126.54,126.54,0,0,0-1-15.24c-.54-2.61-1-4.52-5.64-6.75-32.86-4.58-56.5-32.65-56.5-66.41,0-36.94,28.52-66.76,65.21-66.76s66.46,30,66.46,66.9A66.81,66.81,0,0,1,159,195.17s-4.76,1.1-5.65,7.43a134.15,134.15,0,0,0-.87,14.93s1.36,2.73,2.95.29c0,0,1.81-11.34,19-18.52,21-8.77,37.36-14.5,43.8-40.11,0,0,2.61-11.24,2.61-13.83,0,0,2.32,22.63,2.53,27.23s1.73,19.57-3.21,27-5,9.76-17.31,16.61-16.45,7.51-20.25,9.2-13.28,5-18.5,12.58m52.74,84.7h7.39s2.5-15.39,12.18-21.88,12.54-7,19.26-10.36c24.81-12.51,41.95-29.55,42.57-62.78.23-12.76-1.64-99-1.64-99L295.92,79s-19.52,0-28.38,17.17C255.5,41.1,207.33,0,149.53,0,91.08,0,42.29,42.1,30.84,98.09V96.32C22,79,2.4,79,2.4,79l-.75,49.76S-.23,215,0,227.71c.6,33.23,17.74,50.27,42.56,62.78,6.72,3.39,9.59,3.89,19.25,10.36S74,322.73,74,322.73h7.4c-.73-23.32-24.76-32-44.33-43.36-6.51-3.78-12.29-9.12-16.9-13.74C6.05,251.37,5.82,228,5.82,228l.33-23.14.11-41.33.42-42.66L6.56,84.53c14.65,2.25,20.62,14,23,21.38a128.55,128.55,0,0,0-1.21,17.44c0,55.33,34.91,101.62,84.26,117.23,0,0,15.65,2.8,19.54,9.42s3.14,2.39,6.84,15.6c0,0,3.31,11.73,3.13,30.63s-.36,26.79-.36,26.79h3.88a156.44,156.44,0,0,0,.94-36.33c-1.87-20-2.42-29.17-9.26-38.9a7.45,7.45,0,0,0-.81-1.08,20.82,20.82,0,0,0-2.92-2.65,30.75,30.75,0,0,0-5.62-3.31A77.07,77.07,0,0,0,117.24,237C67.71,221.5,33,176.35,33,123,33,57.55,85.14,4.51,149.53,4.51S266.11,57.55,266.11,123c0,52.49-33.61,97-80.18,112.57,0,0-11.29,3.61-15.86,5.76s-11.61,6.55-14.52,20.07-2.7,17-3.07,22.22-.85,12.67-.68,19.48.58,15.81,1.14,20.13h4.36s-.69-16.68-.69-26,.29-17.44,2.22-27.22,5.52-18.21,8.69-21.38,10.86-5.57,14-6.51c51.09-15.17,88.91-62.14,88.91-118.91a125.5,125.5,0,0,0-1.32-18.29c2.55-7.38,8.59-18.23,22.61-20.37l-.11,36.36.42,42.66.11,41.33.32,23.14s-.21,23.35-14.36,37.61c-4.58,4.62-10.36,10-16.89,13.74-19.56,11.37-43.59,20-44.32,43.36"/></g></g></svg>