<svg version="1.1" id="Layer_1" xmlns="http://www.w3.org/2000/svg" xmlns:xlink="http://www.w3.org/1999/xlink" x="0px" y="0px"
	 width="100%" viewBox="0 0 298 365" enable-background="new 0 0 298 365" xml:space="preserve">
<path fill="#0E0E0E" opacity="1.000000" stroke="none" 
	d="
M159.000000,366.000000 
	C106.000000,366.000000 53.500000,366.000000 1.000000,366.000000 
	C1.000000,244.333328 1.000000,122.666664 1.000000,1.000000 
	C100.333336,1.000000 199.666672,1.000000 299.000000,1.000000 
	C299.000000,122.666664 299.000000,244.333328 299.000000,366.000000 
	C252.500000,366.000000 206.000000,366.000000 159.000000,366.000000 
M277.911682,194.606552 
	C277.911682,194.606552 277.950317,194.145477 277.960327,193.488541 
	C277.953949,193.269638 277.947601,193.050735 277.858643,192.032501 
	C277.830109,190.699966 277.801544,189.367416 278.436188,187.499466 
	C278.624146,186.537918 278.975952,185.576462 278.976562,184.614792 
	C279.004028,140.481461 278.959808,96.348000 279.073273,52.214939 
	C279.083130,48.375278 277.360748,47.951714 274.222107,47.953804 
	C191.451279,48.008896 108.680389,48.026836 25.909695,47.910194 
	C21.808126,47.904415 20.916803,49.280369 20.926725,53.082474 
	C21.038433,95.883209 20.984907,138.684357 21.048244,181.485291 
	C21.050508,183.015747 21.802176,184.545090 22.377041,186.921356 
	C21.926605,193.005203 21.111542,199.089676 21.122181,205.172714 
	C21.134254,212.077225 21.885271,218.980423 21.636871,226.425735 
	C21.423840,227.712723 21.025723,228.999573 21.024652,230.286728 
	C20.991690,269.927216 21.063883,309.568024 20.901777,349.207855 
	C20.884302,353.481415 22.579433,354.062744 26.201031,354.059479 
	C108.646576,353.985260 191.092255,353.966736 273.537659,354.100037 
	C278.000366,354.107269 279.114990,352.827850 279.097321,348.469757 
	C278.935852,308.663361 279.016754,268.855988 278.953491,229.049011 
	C278.950775,227.342133 278.231293,225.636383 277.800598,223.159119 
	C277.817017,222.133484 277.833405,221.107834 278.364441,219.704971 
	C278.168640,217.767715 277.972809,215.830460 278.089478,213.231461 
	C280.069580,210.475586 278.747681,209.272415 275.969727,208.499390 
	C275.969727,208.499390 275.986511,208.250641 276.663361,207.983780 
	C279.431213,206.921478 279.686523,205.186081 277.994171,202.383591 
	C277.971344,202.201126 277.948547,202.018661 278.321564,201.318558 
	C278.180145,199.886490 278.038727,198.454437 277.846985,196.344452 
	C277.786499,195.895752 277.725983,195.447037 277.911682,194.606552 
z"/>
<path fill="#030303" opacity="1.000000" stroke="none" 
	d="
M277.845703,223.930115 
	C278.231293,225.636383 278.950775,227.342133 278.953491,229.049011 
	C279.016754,268.855988 278.935852,308.663361 279.097321,348.469757 
	C279.114990,352.827850 278.000366,354.107269 273.537659,354.100037 
	C191.092255,353.966736 108.646576,353.985260 26.201031,354.059479 
	C22.579433,354.062744 20.884302,353.481415 20.901777,349.207855 
	C21.063883,309.568024 20.991690,269.927216 21.024652,230.286728 
	C21.025723,228.999573 21.423840,227.712723 22.205585,226.443878 
	C28.481857,249.513794 38.169151,270.583527 54.152031,288.393829 
	C74.182274,310.714172 99.528664,323.583374 128.693024,329.907135 
	C129.533386,330.113739 130.271576,330.103149 131.341797,330.143738 
	C132.342026,330.265839 133.010208,330.336731 133.819794,330.681366 
	C135.314850,331.060425 136.668472,331.165771 138.375977,331.332001 
	C140.158051,331.515198 141.586273,331.637512 143.308777,332.018921 
	C145.159897,332.318665 146.716690,332.359344 148.691986,332.467651 
	C151.235123,332.535309 153.359741,332.535309 155.271561,332.535309 
	C155.649963,331.874664 155.932587,331.603973 155.949585,331.317505 
	C156.146530,328.000214 156.303314,324.680542 156.816406,321.297791 
	C159.005203,323.004974 160.848343,324.775879 162.059601,325.939667 
	C163.019821,324.596466 164.165710,322.993561 165.760635,320.762512 
	C165.931091,323.454193 166.043076,325.222656 166.155060,326.991089 
	C166.530762,327.101410 166.906464,327.211700 167.282166,327.321991 
	C167.808136,326.006805 168.334106,324.691589 168.864594,323.373474 
	C170.252319,323.942352 171.635544,324.514160 173.238190,325.332520 
	C175.022537,326.623627 176.587479,327.668152 178.152405,328.712677 
	C178.156738,328.405701 178.161057,328.098694 178.165390,327.791687 
	C179.538162,327.791687 180.910934,327.791687 182.103775,327.791687 
	C183.126678,326.737762 184.543839,325.469818 185.708786,324.001709 
	C186.355804,323.186310 186.581970,322.036957 187.201599,321.115997 
	C187.405365,321.193848 187.829865,321.294495 188.010086,321.540344 
	C188.785721,321.803406 189.381119,321.820557 190.311508,321.914429 
	C191.102509,321.962891 191.558533,321.934631 192.351547,321.964783 
	C193.139664,321.990021 193.590790,321.956787 194.114136,321.933655 
	C194.186340,321.943726 194.056992,322.147034 194.056992,322.147034 
	C194.056992,322.147034 194.110397,321.994690 193.991669,321.665222 
	C193.954330,320.882874 194.035690,320.429932 194.176804,319.726349 
	C194.166672,319.318726 194.096786,319.161804 194.005600,318.613464 
	C193.491028,316.448273 192.997757,314.674500 192.453064,312.715759 
	C191.095978,313.241730 190.051788,313.646454 188.611801,314.007019 
	C187.134354,314.281403 185.886688,315.116272 184.999252,314.830902 
	C180.722717,313.455658 177.790695,314.224701 173.673447,316.974640 
	C169.725616,319.611450 163.292603,318.527527 157.944244,319.079529 
	C157.655029,315.830963 157.439133,313.405945 157.260468,310.589233 
	C157.250565,309.418304 157.203445,308.639069 157.130920,307.477173 
	C154.398026,307.001648 151.690506,306.908752 148.568176,306.776306 
	C146.226776,306.644836 144.300201,306.552948 142.121735,306.197174 
	C140.160095,305.805878 138.450363,305.678436 136.369949,305.480652 
	C134.997498,305.315552 133.995697,305.220856 132.768967,304.897583 
	C131.943192,304.624725 131.342377,304.580383 130.353180,304.419006 
	C105.524117,299.600311 85.493904,287.701263 71.446358,266.986328 
	C35.857937,214.506561 53.976017,142.031479 109.898605,111.931381 
	C111.221542,111.219307 113.019608,109.860565 113.127495,108.670334 
	C113.795319,101.302094 114.042183,93.895691 114.480858,85.507462 
	C108.428581,88.262192 103.103310,90.469299 97.970757,93.058441 
	C71.111900,106.607552 48.030769,124.557297 34.341084,152.021149 
	C29.003862,162.728546 26.175625,174.686569 22.204576,186.074951 
	C21.802176,184.545090 21.050508,183.015747 21.048244,181.485291 
	C20.984907,138.684357 21.038433,95.883209 20.926725,53.082474 
	C20.916803,49.280369 21.808126,47.904415 25.909695,47.910194 
	C108.680389,48.026836 191.451279,48.008896 274.222107,47.953804 
	C277.360748,47.951714 279.083130,48.375278 279.073273,52.214939 
	C278.959808,96.348000 279.004028,140.481461 278.976562,184.614792 
	C278.975952,185.576462 278.624146,186.537918 278.017151,187.475250 
	C276.775055,186.347427 275.952026,185.243790 275.371704,184.028351 
	C275.447571,183.578796 275.280731,183.241043 275.040314,182.620148 
	C274.980591,181.224030 274.994476,180.111053 275.107178,178.646194 
	C274.140320,177.517715 273.074677,176.741119 271.984192,175.712906 
	C271.972382,175.293259 271.985382,175.125198 272.386414,174.993439 
	C273.090363,174.071091 273.774902,173.056732 273.640289,172.166214 
	C273.408783,170.634964 272.666565,169.180908 272.126251,167.421295 
	C271.755249,166.766739 271.396698,166.385345 271.154175,165.646835 
	C270.590179,164.126511 269.910095,162.963303 269.119019,161.423676 
	C268.704803,159.368774 268.401611,157.690262 268.031769,155.642868 
	C264.613251,156.616684 261.744080,157.434006 258.558075,158.341599 
	C260.214264,161.513046 261.643341,164.249619 262.992615,167.364105 
	C263.576904,169.279709 264.241028,170.817413 264.849243,172.469986 
	C264.793335,172.584869 264.902130,172.816086 264.850647,173.237549 
	C265.945221,174.779999 267.091217,175.900970 268.277985,177.039764 
	C268.318756,177.057571 268.324219,177.105560 267.943298,177.063599 
	C265.706787,179.570404 264.988953,181.840149 269.132111,183.211411 
	C269.151703,183.643326 269.054596,183.810196 268.658997,184.044830 
	C268.864563,185.024002 269.368622,185.935425 269.538605,186.960663 
	C266.993713,189.828140 268.481873,192.022934 270.921478,192.853409 
	C273.016235,193.566483 275.583130,192.892471 277.941254,192.831833 
	C277.947601,193.050735 277.953949,193.269638 277.714081,193.786957 
	C277.467834,194.085358 276.993561,194.192764 276.626465,194.113373 
	C275.164093,194.327545 274.068878,194.621140 272.574097,194.950348 
	C271.106628,195.426498 270.038696,195.867004 268.970795,196.307510 
	C269.941071,196.897430 270.911316,197.487350 271.908203,198.301117 
	C271.934845,198.524933 271.993896,198.971863 271.642242,198.989014 
	C268.990417,199.182571 268.210022,200.016479 269.988098,202.223373 
	C269.976654,202.651566 269.986877,202.823013 269.805969,203.322281 
	C268.057678,210.281815 273.625610,207.045395 275.986511,208.250641 
	C275.986511,208.250641 275.969727,208.499390 275.662598,208.898270 
	C274.443024,209.756393 273.525726,210.586227 272.619385,210.574463 
	C271.642731,210.561752 270.676331,209.760818 269.705444,209.303787 
	C269.428925,210.031967 268.716400,211.013290 268.962891,211.437759 
	C269.550659,212.450119 270.495789,213.774643 271.468536,213.935959 
	C273.512787,214.274902 275.667572,213.947235 277.776978,213.893219 
	C277.972809,215.830460 278.168640,217.767715 277.784027,220.016235 
	C275.303528,219.921555 273.403442,219.515625 271.925690,219.199921 
	C271.640198,220.074341 271.270447,221.206848 270.544922,222.297150 
	C268.078064,222.424713 266.758850,222.962433 268.734711,225.410828 
	C264.463623,228.876678 267.835541,233.227509 266.536865,236.954803 
	C266.422302,237.671356 266.585724,238.308289 266.373840,238.895416 
	C264.694489,240.937546 263.390503,243.029495 262.086517,245.121445 
	C262.728882,245.404282 263.371246,245.687119 263.926910,246.315887 
	C262.794617,248.730225 261.749023,250.798630 260.390106,253.014191 
	C258.996826,254.050751 257.916840,254.940170 256.421753,256.171417 
	C258.004974,257.258759 259.320374,258.162140 259.956604,258.599121 
	C258.660553,260.261627 257.518738,261.726288 256.376923,263.190948 
	C257.373016,263.904938 258.369080,264.618958 259.365173,265.332977 
	C260.394196,263.481323 261.423248,261.629669 262.141663,260.336975 
	C263.604614,259.551483 265.381256,259.175568 265.942749,258.140472 
	C266.556519,257.008972 266.046417,255.267807 266.396912,253.941635 
	C267.290588,253.691544 267.813538,253.292175 268.292053,252.542389 
	C268.867126,251.312943 269.486664,250.433899 270.366150,249.186005 
	C268.975769,249.061951 268.074066,248.981491 267.047882,248.589325 
	C265.931976,247.290298 264.940491,246.302994 263.839630,244.874435 
	C266.592743,243.849823 269.455261,243.266464 272.513641,242.643188 
	C272.905426,241.476486 273.489624,239.736771 274.372437,237.860748 
	C274.074982,237.189056 273.478943,236.653687 272.850586,235.731842 
	C276.138702,232.602448 277.485718,229.253815 276.050629,224.796387 
	C276.397705,224.387619 276.623291,224.159256 276.819733,223.901947 
	C276.845367,223.927094 276.895111,223.875336 277.129822,223.939789 
	C277.364563,224.004242 277.845703,223.930115 277.845703,223.930115 
M250.317886,142.034073 
	C250.530777,142.413483 250.743652,142.792877 251.030930,143.619827 
	C251.176178,143.934982 251.421967,144.081360 251.921341,144.661072 
	C252.216583,145.142670 252.511826,145.624268 252.633377,146.730728 
	C253.041199,147.569839 253.449036,148.408951 254.067490,149.819656 
	C254.611923,149.966675 255.156342,150.113693 256.091522,150.832367 
	C256.763763,152.067490 257.435974,153.302612 257.635773,153.669678 
	C259.211578,153.169296 261.438019,152.462311 264.554840,151.472580 
	C262.469116,150.533218 261.303833,150.008392 260.327271,149.568558 
	C261.062866,147.828766 261.701660,146.317902 262.340454,144.807037 
	C260.657135,144.151001 258.973785,143.494949 257.537140,142.352570 
	C260.579926,141.238403 259.577393,140.067398 257.450958,138.028458 
	C255.246689,139.289948 253.042419,140.551437 250.868057,141.865051 
	C250.868057,141.865051 250.882904,141.807480 250.317886,142.034073 
M240.356308,281.798279 
	C239.812729,282.516632 239.269135,283.235016 238.086136,284.070129 
	C237.315796,285.334290 236.545456,286.598480 235.313477,287.847900 
	C235.191254,288.258484 235.069046,288.669037 235.048050,289.844757 
	C235.381119,291.243774 235.543335,292.712891 236.082932,294.027130 
	C237.195526,296.737030 238.589050,296.943665 240.648300,294.067230 
	C242.491577,292.455994 243.703293,290.623627 243.498947,287.980896 
	C244.800491,288.415924 246.102020,288.850952 246.746292,289.066315 
	C248.302063,286.578857 249.678574,284.378021 251.738708,282.026917 
	C251.825577,281.430756 252.060974,280.811584 251.972687,280.242584 
	C251.649857,278.162170 251.219147,276.098541 251.659073,274.015930 
	C252.207825,273.946533 252.756561,273.877167 253.958939,273.928741 
	C254.748962,273.338104 255.538986,272.747467 257.058228,272.042999 
	C258.018555,271.552551 258.978851,271.062103 259.486389,270.802887 
	C257.485077,268.436279 255.661301,266.279602 253.340393,263.535065 
	C252.335861,265.609283 251.598022,267.132782 250.300186,269.077454 
	C250.177719,269.758972 250.055267,270.440460 249.864456,271.917236 
	C249.888687,272.449646 249.912918,272.982086 249.148499,273.151215 
	C246.914688,273.151215 244.680878,273.151215 242.676712,273.151215 
	C243.173767,275.114471 243.532639,276.531921 243.428024,278.265472 
	C243.107986,278.719025 242.787964,279.172577 241.951859,279.746399 
	C241.619873,280.319214 241.287903,280.891998 240.356308,281.798279 
M225.515671,303.375427 
	C226.205826,303.150757 226.895966,302.926086 227.586105,302.701416 
	C227.105484,302.061829 226.624878,301.422211 225.852692,300.179810 
	C224.201492,300.002045 225.401596,294.805176 221.091690,298.180084 
	C221.150192,299.356567 221.208694,300.533081 220.678772,301.999847 
	C220.477051,302.084320 220.275314,302.168823 219.373291,301.839264 
	C217.554153,301.896423 215.735031,301.953583 213.169510,301.643433 
	C210.789886,302.208801 206.355469,302.757050 206.350586,303.342285 
	C206.305008,308.801727 201.449966,308.626526 198.481216,310.638550 
	C200.026535,312.515900 201.507095,314.314545 203.034027,315.961945 
	C203.034027,315.961945 203.084045,316.182098 203.084045,316.182098 
	C203.084045,316.182098 202.920975,316.042145 203.037094,315.302521 
	C204.251862,314.909607 205.466614,314.516663 207.102402,313.987549 
	C207.102402,313.492432 207.102402,312.354187 207.729736,311.026917 
	C208.166092,311.008362 208.602463,310.989807 209.330185,311.544098 
	C217.898987,314.633789 219.602676,313.677887 219.721405,306.315613 
	C222.608887,308.769501 223.831482,308.714020 225.023361,305.379852 
	C225.006012,304.911713 224.988647,304.443573 225.515671,303.375427 
M231.352768,121.447762 
	C231.545792,121.893761 231.738800,122.339752 232.010239,123.507439 
	C233.270676,124.344574 234.531113,125.181709 236.023880,126.484818 
	C236.685257,126.332611 237.346649,126.180405 238.481201,126.089722 
	C238.481201,126.089722 238.958084,126.105217 239.007233,126.766243 
	C239.129730,127.186584 239.252213,127.606926 239.146973,128.732285 
	C240.730545,129.886871 242.314117,131.041443 243.819641,132.632812 
	C244.198425,133.427612 244.577209,134.222412 244.787979,135.766739 
	C245.703339,136.968857 246.618683,138.170990 248.603790,140.778015 
	C249.921188,137.394287 250.788483,135.166656 251.454971,132.370285 
	C251.136917,131.722015 250.932083,130.618347 250.480759,130.506134 
	C248.739685,130.073288 246.919876,129.957184 245.217712,129.188354 
	C245.229507,128.827591 245.241287,128.466827 246.026871,128.223694 
	C246.734268,127.732147 247.441666,127.240608 248.149063,126.749077 
	C247.430634,125.841393 246.712189,124.933716 245.257660,123.813118 
	C244.237854,123.844147 243.218048,123.875175 242.386536,123.229912 
	C242.629089,122.241440 243.354630,120.619438 243.031433,120.373055 
	C241.553833,119.246582 239.782196,118.505814 237.886337,117.093231 
	C236.988022,117.641289 236.089691,118.189346 235.172699,118.348755 
	C235.172699,118.348755 235.001816,117.999207 235.193283,117.202034 
	C235.627701,113.793419 234.077194,110.502312 231.049026,110.549515 
	C228.662613,110.586708 226.323044,113.627716 223.242249,115.855515 
	C226.001373,117.459991 227.493866,118.327896 228.984238,119.781639 
	C229.695679,120.184830 230.407135,120.588020 231.352768,121.447762 
M139.378815,266.902954 
	C146.216080,256.736145 153.053360,246.569305 160.290680,235.807617 
	C171.329880,251.901733 184.957901,265.070557 193.920837,282.164154 
	C194.993973,281.714630 196.360855,281.206085 197.672974,280.582397 
	C209.729843,274.851318 218.842041,265.778961 226.502243,255.078491 
	C243.497375,231.338013 246.783325,204.621567 243.231903,176.545715 
	C242.015335,166.928162 239.436905,157.575165 233.629745,149.573715 
	C231.308929,146.375946 228.228348,143.729584 225.493622,140.832230 
	C225.083649,141.116852 224.673691,141.401474 224.263718,141.686081 
	C229.826782,160.528015 231.609894,179.681610 227.405777,198.860291 
	C223.167328,218.195526 213.711563,234.674973 196.835022,247.788818 
	C184.655884,232.104996 172.711060,216.722900 160.581467,201.102890 
	C149.016861,216.701370 137.770370,231.870789 126.462692,247.122726 
	C99.742264,218.913559 102.713974,159.792969 146.082153,135.708893 
	C156.816956,156.770432 169.022781,176.907364 184.100677,196.789658 
	C187.124527,178.293747 192.855850,162.153824 201.273727,147.230087 
	C211.957443,128.289398 223.673676,109.931824 234.893082,91.291748 
	C236.336777,88.893188 237.471451,86.308632 238.749268,83.810242 
	C238.314484,83.443680 237.879700,83.077126 237.444916,82.710571 
	C235.957443,83.470894 234.207413,83.950577 233.034958,85.047577 
	C230.246277,87.656799 227.405884,90.319443 225.158371,93.380478 
	C211.774323,111.609131 198.554749,129.958511 185.273605,148.262756 
	C183.966354,150.064438 182.616257,151.835007 180.603928,154.535355 
	C173.845871,143.241776 167.396805,132.992065 161.561752,122.403961 
	C159.722076,119.065781 160.006683,114.924454 163.585739,112.038124 
	C169.802933,115.992744 172.612900,115.310524 177.316895,109.480560 
	C180.025635,106.123428 180.459976,100.881584 185.577713,99.396309 
	C185.969940,99.282471 186.322449,97.016434 185.855988,96.284340 
	C182.697815,91.327568 185.031067,86.714851 186.419708,82.011131 
	C188.951935,73.433815 186.528122,66.654839 179.157242,61.621510 
	C166.191437,52.767582 149.922882,56.902077 141.093033,71.504021 
	C139.454163,74.214218 137.855530,75.185898 134.538834,75.343452 
	C131.349915,75.494942 127.485420,76.891975 125.283737,79.102318 
	C120.853630,83.549835 119.746506,89.796051 120.458817,95.842155 
	C121.465935,104.390648 126.707817,109.366631 134.249710,109.752640 
	C136.831894,109.884796 139.447189,109.370377 142.136841,109.143829 
	C142.229034,115.057266 138.072861,116.681236 133.905823,117.986710 
	C124.652733,120.885567 116.603218,125.785248 109.805580,132.578888 
	C78.876610,163.489716 69.691818,208.765945 95.372406,249.243637 
	C104.131905,263.050323 115.466537,274.322449 129.414383,282.978821 
	C132.724518,277.617828 135.847961,272.559235 139.378815,266.902954 
z"/>
<path fill="#F6F6F6" opacity="1.000000" stroke="none" 
	d="
M22.290810,186.498154 
	C26.175625,174.686569 29.003862,162.728546 34.341084,152.021149 
	C48.030769,124.557297 71.111900,106.607552 97.970757,93.058441 
	C103.103310,90.469299 108.428581,88.262192 114.480858,85.507462 
	C114.042183,93.895691 113.795319,101.302094 113.127495,108.670334 
	C113.019608,109.860565 111.221542,111.219307 109.898605,111.931381 
	C53.976017,142.031479 35.857937,214.506561 71.446358,266.986328 
	C85.493904,287.701263 105.524117,299.600311 130.401703,304.663696 
	C131.557037,305.058990 132.275482,305.092590 132.993912,305.126160 
	C133.995697,305.220856 134.997498,305.315552 136.577972,305.783539 
	C138.895630,306.258240 140.634628,306.359650 142.373611,306.461060 
	C144.300201,306.552948 146.226776,306.644836 148.877533,307.025574 
	C152.119919,307.496246 154.638107,307.678009 157.156311,307.859802 
	C157.203445,308.639069 157.250565,309.418304 156.990723,310.900116 
	C156.612732,314.855591 156.541733,318.108551 156.470734,321.361481 
	C156.303314,324.680542 156.146530,328.000214 155.949585,331.317505 
	C155.932587,331.603973 155.649963,331.874664 155.271561,332.535309 
	C153.359741,332.535309 151.235123,332.535309 148.533966,332.189148 
	C146.309784,331.815247 144.662125,331.787537 143.014481,331.759827 
	C141.586273,331.637512 140.158051,331.515198 138.108307,331.050873 
	C136.217316,330.608429 134.947845,330.508026 133.678375,330.407623 
	C133.010208,330.336731 132.342026,330.265839 131.088058,329.921204 
	C129.865112,329.661652 129.227966,329.675781 128.590820,329.689941 
	C99.528664,323.583374 74.182274,310.714172 54.152031,288.393829 
	C38.169151,270.583527 28.481857,249.513794 22.544670,226.173126 
	C21.885271,218.980423 21.134254,212.077225 21.122181,205.172714 
	C21.111542,199.089676 21.926605,193.005203 22.290810,186.498154 
z"/>
<path fill="#8B8B8B" opacity="1.000000" stroke="none" 
	d="
M277.899963,192.432159 
	C275.583130,192.892471 273.016235,193.566483 270.921478,192.853409 
	C268.481873,192.022934 266.993713,189.828140 269.650360,187.250793 
	C270.675934,187.436493 271.525848,187.693893 271.786285,187.410187 
	C272.681152,186.435349 273.369659,185.271133 274.383606,184.136673 
	C274.796570,184.109558 274.962769,184.124847 275.128998,184.140152 
	C275.952026,185.243790 276.775055,186.347427 277.685547,187.742966 
	C277.801544,189.367416 277.830109,190.699966 277.899963,192.432159 
z"/>
<path fill="#BCBBBC" opacity="1.000000" stroke="none" 
	d="
M276.324951,208.117218 
	C273.625610,207.045395 268.057678,210.281815 270.250977,203.329865 
	C273.263397,202.984665 275.639648,202.959717 278.015930,202.934769 
	C279.686523,205.186081 279.431213,206.921478 276.324951,208.117218 
z"/>
<path fill="#B1B1B1" opacity="1.000000" stroke="none" 
	d="
M277.933228,213.562347 
	C275.667572,213.947235 273.512787,214.274902 271.468536,213.935959 
	C270.495789,213.774643 269.550659,212.450119 268.962891,211.437759 
	C268.716400,211.013290 269.428925,210.031967 269.705444,209.303787 
	C270.676331,209.760818 271.642731,210.561752 272.619385,210.574463 
	C273.525726,210.586227 274.443024,209.756393 275.668457,209.022797 
	C278.747681,209.272415 280.069580,210.475586 277.933228,213.562347 
z"/>
<path fill="#999899" opacity="1.000000" stroke="none" 
	d="
M271.993896,198.971863 
	C271.993896,198.971863 271.934845,198.524933 272.280701,198.272354 
	C274.123413,197.982376 276.340607,200.992310 277.152832,197.001099 
	C277.401184,196.993713 277.897308,197.022369 277.897308,197.022369 
	C278.038727,198.454437 278.180145,199.886490 277.723328,201.560440 
	C276.344971,201.686707 275.564850,201.571091 274.704346,201.184448 
	C273.747284,200.266235 272.870575,199.619049 271.993896,198.971863 
z"/>
<path fill="#8B8B8B" opacity="1.000000" stroke="none" 
	d="
M277.823151,223.544617 
	C277.845703,223.930115 277.364563,224.004242 276.920471,223.639389 
	C274.617798,222.962814 272.759247,222.651077 270.900696,222.339355 
	C271.270447,221.206848 271.640198,220.074341 271.925690,219.199921 
	C273.403442,219.515625 275.303528,219.921555 277.526703,220.204834 
	C277.833405,221.107834 277.817017,222.133484 277.823151,223.544617 
z"/>
<path fill="#AEADAE" opacity="1.000000" stroke="none" 
	d="
M277.872131,196.683411 
	C277.897308,197.022369 277.401184,196.993713 276.809326,196.986084 
	C275.136200,196.290558 274.054932,195.602646 272.973633,194.914734 
	C274.068878,194.621140 275.164093,194.327545 276.687927,194.286285 
	C277.232391,194.771973 277.415405,194.925217 277.665497,194.998337 
	C277.725983,195.447037 277.786499,195.895752 277.872131,196.683411 
z"/>
<path fill="#2B2B2B" opacity="1.000000" stroke="none" 
	d="
M274.784698,201.455475 
	C275.564850,201.571091 276.344971,201.686707 277.525452,201.819275 
	C277.948547,202.018661 277.971344,202.201126 278.005066,202.659180 
	C275.639648,202.959717 273.263397,202.984665 270.442078,203.002045 
	C269.986877,202.823013 269.976654,202.651566 270.376404,202.115051 
	C272.119171,201.651840 273.451935,201.553665 274.784698,201.455475 
z"/>
<path fill="#999899" opacity="1.000000" stroke="none" 
	d="
M277.788574,194.802444 
	C277.415405,194.925217 277.232391,194.771973 277.055023,194.365692 
	C276.993561,194.192764 277.467834,194.085358 277.709076,194.115417 
	C277.950317,194.145477 277.911682,194.606552 277.788574,194.802444 
z"/>
<path fill="#F6F5F6" opacity="1.000000" stroke="none" 
	d="
M139.175110,267.201782 
	C135.847961,272.559235 132.724518,277.617828 129.414383,282.978821 
	C115.466537,274.322449 104.131905,263.050323 95.372406,249.243637 
	C69.691818,208.765945 78.876610,163.489716 109.805580,132.578888 
	C116.603218,125.785248 124.652733,120.885567 133.905823,117.986710 
	C138.072861,116.681236 142.229034,115.057266 142.136841,109.143829 
	C139.447189,109.370377 136.831894,109.884796 134.249710,109.752640 
	C126.707817,109.366631 121.465935,104.390648 120.458817,95.842155 
	C119.746506,89.796051 120.853630,83.549835 125.283737,79.102318 
	C127.485420,76.891975 131.349915,75.494942 134.538834,75.343452 
	C137.855530,75.185898 139.454163,74.214218 141.093033,71.504021 
	C149.922882,56.902077 166.191437,52.767582 179.157242,61.621510 
	C186.528122,66.654839 188.951935,73.433815 186.419708,82.011131 
	C185.031067,86.714851 182.697815,91.327568 185.855988,96.284340 
	C186.322449,97.016434 185.969940,99.282471 185.577713,99.396309 
	C180.459976,100.881584 180.025635,106.123428 177.316895,109.480560 
	C172.612900,115.310524 169.802933,115.992744 163.585739,112.038124 
	C160.006683,114.924454 159.722076,119.065781 161.561752,122.403961 
	C167.396805,132.992065 173.845871,143.241776 180.603928,154.535355 
	C182.616257,151.835007 183.966354,150.064438 185.273605,148.262756 
	C198.554749,129.958511 211.774323,111.609131 225.158371,93.380478 
	C227.405884,90.319443 230.246277,87.656799 233.034958,85.047577 
	C234.207413,83.950577 235.957443,83.470894 237.444916,82.710571 
	C237.879700,83.077126 238.314484,83.443680 238.749268,83.810242 
	C237.471451,86.308632 236.336777,88.893188 234.893082,91.291748 
	C223.673676,109.931824 211.957443,128.289398 201.273727,147.230087 
	C192.855850,162.153824 187.124527,178.293747 184.100677,196.789658 
	C169.022781,176.907364 156.816956,156.770432 146.082153,135.708893 
	C102.713974,159.792969 99.742264,218.913559 126.462692,247.122726 
	C137.770370,231.870789 149.016861,216.701370 160.581467,201.102890 
	C172.711060,216.722900 184.655884,232.104996 196.835022,247.788818 
	C213.711563,234.674973 223.167328,218.195526 227.405777,198.860291 
	C231.609894,179.681610 229.826782,160.528015 224.263718,141.686081 
	C224.673691,141.401474 225.083649,141.116852 225.493622,140.832230 
	C228.228348,143.729584 231.308929,146.375946 233.629745,149.573715 
	C239.436905,157.575165 242.015335,166.928162 243.231903,176.545715 
	C246.783325,204.621567 243.497375,231.338013 226.502243,255.078491 
	C218.842041,265.778961 209.729843,274.851318 197.672974,280.582397 
	C196.360855,281.206085 194.993973,281.714630 193.920837,282.164154 
	C184.957901,265.070557 171.329880,251.901733 160.290680,235.807617 
	C153.053360,246.569305 146.216080,256.736145 139.175110,267.201782 
z"/>
<path fill="#919191" opacity="1.000000" stroke="none" 
	d="
M156.816391,321.297791 
	C156.541733,318.108551 156.612732,314.855591 156.953491,311.291809 
	C157.439133,313.405945 157.655029,315.830963 157.944244,319.079529 
	C163.292603,318.527527 169.725616,319.611450 173.673447,316.974640 
	C177.790695,314.224701 180.722717,313.455658 184.999252,314.830902 
	C185.886688,315.116272 187.134354,314.281403 188.547577,314.332825 
	C189.050278,315.767181 189.221375,316.831604 189.392471,317.895996 
	C191.777863,314.752441 192.231277,319.683533 194.026901,319.004852 
	C194.096786,319.161804 194.166672,319.318726 193.843719,319.727905 
	C192.972107,320.622192 192.493332,321.264252 192.014557,321.906342 
	C191.558533,321.934631 191.102509,321.962891 190.263947,321.615875 
	C189.197571,321.258545 188.513718,321.276520 187.829865,321.294495 
	C187.829865,321.294495 187.405365,321.193848 187.098877,320.835449 
	C186.809647,319.631744 186.826904,318.786469 186.745789,317.616180 
	C185.719208,317.557312 184.791000,317.823425 183.636292,318.250427 
	C182.233261,317.516510 181.056747,316.621704 178.969482,315.034302 
	C179.463135,317.872711 179.704926,319.263000 179.648651,320.792053 
	C178.596085,321.331726 177.841568,321.732574 176.765076,322.199066 
	C175.301651,323.205139 174.160202,324.145569 173.018753,325.085999 
	C171.635544,324.514160 170.252319,323.942352 168.864594,323.373474 
	C168.334106,324.691589 167.808136,326.006805 167.282166,327.321991 
	C166.906464,327.211700 166.530762,327.101410 166.155060,326.991089 
	C166.043076,325.222656 165.931091,323.454193 165.760635,320.762512 
	C164.165710,322.993561 163.019821,324.596466 162.059601,325.939667 
	C160.848343,324.775879 159.005203,323.004974 156.816391,321.297791 
M169.610062,322.448883 
	C169.337723,321.842957 169.065369,321.237030 168.793015,320.631104 
	C168.409821,320.890350 168.026642,321.149567 167.643448,321.408813 
	C168.024994,321.813263 168.406525,322.217682 169.610062,322.448883 
z"/>
<path fill="#9E9D9E" opacity="1.000000" stroke="none" 
	d="
M264.013611,245.969955 
	C263.371246,245.687119 262.728882,245.404282 262.086517,245.121445 
	C263.390503,243.029495 264.694489,240.937546 266.710327,238.926727 
	C267.647369,239.016907 267.872498,239.025970 268.341919,239.223450 
	C269.638855,239.153259 270.691528,238.894638 271.744171,238.636032 
	C271.569641,238.100571 271.395081,237.565125 271.220520,237.029663 
	C270.090637,237.029663 268.960724,237.029663 267.571350,237.027344 
	C267.146179,236.975082 266.980530,236.925125 266.814911,236.875183 
	C267.835541,233.227509 264.463623,228.876678 269.098206,225.373291 
	C271.507629,224.900894 273.418243,224.782867 275.540802,224.697617 
	C275.752747,224.730408 276.022644,225.063812 276.016388,225.050751 
	C276.010132,225.037674 275.983917,225.030869 275.983917,225.030869 
	C277.485718,229.253815 276.138702,232.602448 272.815735,236.044739 
	C273.233398,237.161743 273.653625,237.579407 274.073822,237.997055 
	C273.489624,239.736771 272.905426,241.476486 272.513641,242.643188 
	C269.455261,243.266464 266.592743,243.849823 263.886993,245.034912 
	C264.043762,245.636627 264.013611,245.969955 264.013611,245.969955 
z"/>
<path fill="#747474" opacity="1.000000" stroke="none" 
	d="
M219.016327,306.109406 
	C219.602676,313.677887 217.898987,314.633789 209.381805,311.101379 
	C209.338501,310.103851 209.243561,309.549072 209.145935,308.629761 
	C208.749115,307.181366 208.354980,306.097412 207.995483,304.784607 
	C208.030136,304.555695 208.156876,304.110352 208.533615,304.111877 
	C210.595047,303.709686 212.279739,303.306000 214.297180,303.084839 
	C216.097336,303.507599 217.564743,303.747864 219.027649,304.341675 
	C219.020874,305.166626 219.018600,305.638000 219.016327,306.109406 
M212.521744,304.346039 
	C212.521744,304.346039 212.412582,304.532104 212.412582,304.532104 
	C212.412582,304.532104 212.646912,304.505005 212.521744,304.346039 
z"/>
<path fill="#BCBBBC" opacity="1.000000" stroke="none" 
	d="
M266.026184,253.792374 
	C266.046417,255.267807 266.556519,257.008972 265.942749,258.140472 
	C265.381256,259.175568 263.604614,259.551483 262.141663,260.336975 
	C261.423248,261.629669 260.394196,263.481323 259.365173,265.332977 
	C258.369080,264.618958 257.373016,263.904938 256.376923,263.190948 
	C257.518738,261.726288 258.660553,260.261627 259.956604,258.599121 
	C259.320374,258.162140 258.004974,257.258759 256.421753,256.171417 
	C257.916840,254.940170 258.996826,254.050751 260.761047,253.034515 
	C262.972229,253.202576 264.499207,253.497467 266.026184,253.792374 
z"/>
<path fill="#2B2B2B" opacity="1.000000" stroke="none" 
	d="
M179.946716,320.653259 
	C179.704926,319.263000 179.463135,317.872711 178.969482,315.034302 
	C181.056747,316.621704 182.233261,317.516510 184.010376,318.243591 
	C185.355347,318.031006 186.099762,317.986084 186.844162,317.941162 
	C186.826904,318.786469 186.809647,319.631744 186.895111,320.757599 
	C186.581970,322.036957 186.355804,323.186310 185.708786,324.001709 
	C184.543839,325.469818 183.126678,326.737762 182.103775,327.791687 
	C180.910934,327.791687 179.538162,327.791687 178.165390,327.791687 
	C178.161057,328.098694 178.156738,328.405701 178.152405,328.712677 
	C176.587479,327.668152 175.022537,326.623627 173.238190,325.332520 
	C174.160202,324.145569 175.301651,323.205139 176.894073,322.479614 
	C177.720337,323.515778 178.095612,324.337006 178.746887,325.762207 
	C179.244766,323.642212 179.595749,322.147736 179.946716,320.653259 
z"/>
<path fill="#B1B1B1" opacity="1.000000" stroke="none" 
	d="
M257.290466,142.838898 
	C258.973785,143.494949 260.657135,144.151001 262.340454,144.807037 
	C261.701660,146.317902 261.062866,147.828766 260.327271,149.568558 
	C261.303833,150.008392 262.469116,150.533218 264.554840,151.472580 
	C261.438019,152.462311 259.211578,153.169296 257.635773,153.669678 
	C257.435974,153.302612 256.763763,152.067490 256.064148,150.346558 
	C255.426422,149.190033 254.816040,148.519302 254.205643,147.848572 
	C254.089386,148.315063 253.973129,148.781555 253.856873,149.248047 
	C253.449036,148.408951 253.041199,147.569839 252.992233,146.392578 
	C253.236343,145.365936 253.121613,144.677444 253.002777,143.994843 
	C252.998688,144.000732 252.985947,144.010193 253.328644,144.003845 
	C254.509979,143.659866 255.348602,143.322235 256.463165,142.949188 
	C256.922913,142.888824 257.106689,142.863861 257.290466,142.838898 
M258.772858,150.520508 
	C258.569733,150.434494 258.366608,150.348480 258.163483,150.262451 
	C258.218872,150.484741 258.274231,150.707047 258.772858,150.520508 
z"/>
<path fill="#999899" opacity="1.000000" stroke="none" 
	d="
M263.072449,166.986191 
	C261.643341,164.249619 260.214264,161.513046 258.558075,158.341599 
	C261.744080,157.434006 264.613251,156.616684 268.031769,155.642868 
	C268.401611,157.690262 268.704803,159.368774 268.898071,161.586731 
	C268.525391,162.368347 268.262604,162.610519 267.710388,162.906860 
	C266.914368,163.066727 266.407806,163.172440 265.901245,163.278137 
	C265.928680,163.439285 265.956085,163.600433 265.983490,163.761566 
	C266.602814,163.721756 267.222137,163.681931 268.163971,163.795319 
	C267.718140,164.674545 266.949768,165.400543 265.995911,165.851807 
	C265.229401,166.023193 264.648315,166.469345 263.820068,166.954971 
	C263.406097,166.991684 263.239288,166.988937 263.072449,166.986191 
z"/>
<path fill="#A8A8A8" opacity="1.000000" stroke="none" 
	d="
M213.964417,302.902313 
	C212.279739,303.306000 210.595047,303.709686 208.340637,304.147461 
	C207.680511,304.271851 207.499084,304.420044 207.513962,304.443420 
	C207.642914,304.646149 207.807129,304.826477 207.960831,305.013489 
	C208.354980,306.097412 208.749115,307.181366 208.796875,308.684265 
	C208.001129,309.807465 207.551758,310.511688 207.102402,311.215912 
	C207.102402,312.354187 207.102402,313.492432 207.102402,313.987549 
	C205.466614,314.516663 204.251862,314.909607 203.002838,315.683014 
	C202.968582,316.063507 202.987656,316.113190 202.987656,316.113190 
	C201.507095,314.314545 200.026535,312.515900 198.481216,310.638550 
	C201.449966,308.626526 206.305008,308.801727 206.350586,303.342285 
	C206.355469,302.757050 210.789886,302.208801 213.548508,301.976379 
	C213.952499,302.506195 213.964798,302.703857 213.964417,302.902313 
z"/>
<path fill="#A8A8A8" opacity="1.000000" stroke="none" 
	d="
M228.986359,119.195801 
	C227.493866,118.327896 226.001373,117.459991 223.242249,115.855515 
	C226.323044,113.627716 228.662613,110.586708 231.049026,110.549515 
	C234.077194,110.502312 235.627701,113.793419 234.749374,117.598740 
	C233.614822,117.989021 232.924194,117.982605 231.875397,117.971916 
	C230.673615,118.377029 229.829987,118.786415 228.986359,119.195801 
z"/>
<path fill="#A8A8A8" opacity="1.000000" stroke="none" 
	d="
M243.891495,277.949341 
	C243.532639,276.531921 243.173767,275.114471 242.676712,273.151215 
	C244.680878,273.151215 246.914688,273.151215 249.611740,273.517853 
	C250.074982,273.884491 250.432617,274.057953 250.432617,274.057953 
	C250.432617,274.057953 250.829086,274.028564 250.829071,274.028564 
	C251.219147,276.098541 251.649857,278.162170 251.972687,280.242584 
	C252.060974,280.811584 251.825577,281.430756 251.035095,282.031036 
	C248.603943,280.700867 246.876419,279.366577 244.834534,278.011353 
	C244.310623,277.976776 244.101059,277.963074 243.891495,277.949341 
z"/>
<path fill="#2B2B2B" opacity="1.000000" stroke="none" 
	d="
M245.148895,278.032288 
	C246.876419,279.366577 248.603943,280.700867 250.693268,282.106171 
	C249.678574,284.378021 248.302063,286.578857 246.746292,289.066315 
	C246.102020,288.850952 244.800491,288.415924 242.878815,287.942688 
	C241.838989,287.603027 241.419281,287.301605 240.821213,286.609558 
	C240.723801,285.458893 240.804764,284.698853 241.132294,283.936768 
	C241.378845,283.934723 241.834503,283.746216 241.981476,283.781952 
	C242.128433,283.817688 242.398743,283.953491 242.861618,283.981262 
	C243.940826,283.996460 244.557159,283.983887 245.468109,283.829956 
	C250.330841,281.514679 246.568665,280.308899 245.166153,278.628174 
	C245.134796,278.431122 245.148895,278.032288 245.148895,278.032288 
z"/>
<path fill="#4D4C4D" opacity="1.000000" stroke="none" 
	d="
M250.860199,268.656281 
	C251.598022,267.132782 252.335861,265.609283 253.340393,263.535065 
	C255.661301,266.279602 257.485077,268.436279 259.486389,270.802887 
	C258.978851,271.062103 258.018555,271.552551 256.411346,272.058380 
	C255.238342,271.852661 254.712234,271.631592 254.061554,271.122284 
	C252.911392,270.108124 251.885788,269.382202 250.860199,268.656281 
z"/>
<path fill="#B1B1B1" opacity="1.000000" stroke="none" 
	d="
M266.396881,253.941635 
	C264.499207,253.497467 262.972229,253.202576 261.074341,252.887360 
	C261.749023,250.798630 262.794617,248.730225 263.926910,246.315887 
	C264.013611,245.969955 264.043762,245.636627 263.996399,245.476166 
	C264.940491,246.302994 265.931976,247.290298 266.751099,248.814667 
	C267.164703,250.532089 267.750610,251.712448 268.336517,252.892807 
	C267.813538,253.292175 267.290588,253.691544 266.396881,253.941635 
M263.599487,250.513412 
	C263.599487,250.513412 263.481720,250.582458 263.599487,250.513412 
z"/>
<path fill="#BCBBBC" opacity="1.000000" stroke="none" 
	d="
M242.198242,123.906212 
	C243.218048,123.875175 244.237854,123.844147 245.445892,124.173676 
	C245.133667,125.684998 241.354370,126.485985 245.253082,128.106064 
	C245.241287,128.466827 245.229507,128.827591 245.038635,129.774155 
	C244.538925,130.971970 244.218307,131.584000 243.897690,132.196030 
	C242.314117,131.041443 240.730545,129.886871 239.581573,128.285355 
	C240.743530,126.527687 241.470886,125.216949 242.198242,123.906212 
z"/>
<path fill="#B8B8B8" opacity="1.000000" stroke="none" 
	d="
M243.858673,132.414429 
	C244.218307,131.584000 244.538925,130.971970 244.994476,130.041504 
	C246.919876,129.957184 248.739685,130.073288 250.480759,130.506134 
	C250.932083,130.618347 251.136917,131.722015 251.331726,132.561172 
	C249.124313,133.507111 247.040161,134.262161 244.955994,135.017212 
	C244.577209,134.222412 244.198425,133.427612 243.858673,132.414429 
z"/>
<path fill="#B8B8B8" opacity="1.000000" stroke="none" 
	d="
M238.958084,126.105217 
	C238.958084,126.105217 238.481201,126.089722 238.237030,125.662064 
	C236.871735,124.544838 235.750641,123.855278 234.350800,123.062012 
	C233.710968,122.308800 233.349899,121.659294 233.290848,120.884277 
	C234.125702,120.084984 234.658539,119.411194 235.191376,118.737404 
	C236.089691,118.189346 236.988022,117.641289 238.063431,117.735359 
	C238.479721,120.953400 238.718903,123.529305 238.958084,126.105217 
z"/>
<path fill="#BCBBBC" opacity="1.000000" stroke="none" 
	d="
M244.871979,135.391983 
	C247.040161,134.262161 249.124313,133.507111 251.432129,132.845551 
	C250.788483,135.166656 249.921188,137.394287 248.603790,140.778015 
	C246.618683,138.170990 245.703339,136.968857 244.871979,135.391983 
z"/>
<path fill="#AEADAE" opacity="1.000000" stroke="none" 
	d="
M240.999588,287.000153 
	C241.419281,287.301605 241.838989,287.603027 242.509308,287.970581 
	C243.703293,290.623627 242.491577,292.455994 240.307358,293.719849 
	C238.867935,291.983917 237.769470,290.595398 236.968765,289.138245 
	C237.469055,289.056030 237.671600,289.042419 238.230072,289.084412 
	C239.052078,288.770264 239.518158,288.400452 240.091080,287.803986 
	C240.465134,287.384949 240.732361,287.192535 240.999588,287.000153 
z"/>
<path fill="#AEADAE" opacity="1.000000" stroke="none" 
	d="
M238.982666,126.435730 
	C238.718903,123.529305 238.479721,120.953400 238.178360,118.001984 
	C239.782196,118.505814 241.553833,119.246582 243.031433,120.373055 
	C243.354630,120.619438 242.629089,122.241440 242.292389,123.568062 
	C241.470886,125.216949 240.743530,126.527687 239.695435,127.932846 
	C239.252213,127.606926 239.129730,127.186584 238.982666,126.435730 
z"/>
<path fill="#B1B1B1" opacity="1.000000" stroke="none" 
	d="
M269.015381,182.946350 
	C264.988953,181.840149 265.706787,179.570404 268.295990,177.307831 
	C270.022766,177.050858 271.015900,176.507690 272.009003,175.964508 
	C273.074677,176.741119 274.140320,177.517715 274.740967,178.646484 
	C272.522430,180.314545 270.768890,181.630447 269.015381,182.946350 
z"/>
<path fill="#A3A2A3" opacity="1.000000" stroke="none" 
	d="
M219.368866,306.212524 
	C219.018600,305.638000 219.020874,305.166626 219.247650,304.194489 
	C219.672623,303.213623 219.873093,302.733490 220.073563,302.253357 
	C220.275314,302.168823 220.477051,302.084320 221.231720,301.850586 
	C222.432434,301.337341 223.080185,300.973389 223.818665,300.992432 
	C223.963242,301.632294 224.017105,301.889130 224.062531,302.473145 
	C224.053345,303.240875 224.052567,303.681427 223.685364,304.150421 
	C222.679214,304.404510 222.039474,304.630157 221.399750,304.855835 
	C222.573685,305.263763 223.747604,305.671722 224.921524,306.079681 
	C223.831482,308.714020 222.608887,308.769501 219.368866,306.212524 
z"/>
<path fill="#9E9D9E" opacity="1.000000" stroke="none" 
	d="
M269.132111,183.211395 
	C270.768890,181.630447 272.522430,180.314545 274.642151,178.998352 
	C274.994476,180.111053 274.980591,181.224030 274.727905,182.693802 
	C274.067413,183.121384 273.645782,183.192169 272.862488,183.330643 
	C271.319763,183.591232 270.138611,183.784149 268.957489,183.977051 
	C269.054596,183.810196 269.151703,183.643326 269.132111,183.211395 
z"/>
<path fill="#BCBBBC" opacity="1.000000" stroke="none" 
	d="
M262.992615,167.364105 
	C263.239288,166.988937 263.406097,166.991684 264.112854,166.925583 
	C265.041901,166.806427 265.431000,166.756134 265.867249,166.996674 
	C265.947754,167.481033 265.981171,167.674576 265.771362,168.110519 
	C266.358734,168.049042 267.189362,167.745178 268.105042,167.328705 
	C268.327362,167.081161 268.488312,166.986481 268.723938,167.281616 
	C269.197174,167.820251 269.619446,168.009323 269.997620,168.452850 
	C269.641174,169.291229 269.328827,169.875153 268.707947,170.683960 
	C267.234650,171.390930 266.069916,171.873016 264.905182,172.355103 
	C264.241028,170.817413 263.576904,169.279709 262.992615,167.364105 
z"/>
<path fill="#D7D7D7" opacity="1.000000" stroke="none" 
	d="
M269.016479,170.459061 
	C269.328827,169.875153 269.641174,169.291229 270.346710,168.365372 
	C271.206177,167.913773 271.672424,167.804108 272.138702,167.694458 
	C272.666565,169.180908 273.408783,170.634964 273.640289,172.166214 
	C273.774902,173.056732 273.090363,174.071091 272.513306,174.708313 
	C269.956909,171.412292 270.168701,175.406738 268.970856,175.132416 
	C268.933624,174.423325 268.923309,174.139450 268.976562,173.506989 
	C269.032257,172.258621 269.024353,171.358841 269.016479,170.459061 
z"/>
<path fill="#4D4C4D" opacity="1.000000" stroke="none" 
	d="
M236.671005,289.206879 
	C237.769470,290.595398 238.867935,291.983917 239.982544,293.772003 
	C238.589050,296.943665 237.195526,296.737030 236.082932,294.027130 
	C235.543335,292.712891 235.381119,291.243774 235.285782,289.480225 
	C235.906006,289.146057 236.288513,289.176453 236.671005,289.206879 
z"/>
<path fill="#A3A2A3" opacity="1.000000" stroke="none" 
	d="
M194.005600,318.613464 
	C192.231277,319.683533 191.777863,314.752441 189.392471,317.895996 
	C189.221375,316.831604 189.050278,315.767181 188.943390,314.376984 
	C190.051788,313.646454 191.095978,313.241730 192.453064,312.715759 
	C192.997757,314.674500 193.491028,316.448273 194.005600,318.613464 
z"/>
<path fill="#D7D7D7" opacity="1.000000" stroke="none" 
	d="
M256.187225,142.984604 
	C255.348602,143.322235 254.509979,143.659866 253.434235,143.692429 
	C252.410797,142.862564 251.624481,142.337753 250.838165,141.812943 
	C253.042419,140.551437 255.246689,139.289948 257.111267,138.567932 
	C256.576782,140.399811 256.381989,141.692200 256.187225,142.984604 
z"/>
<path fill="#CACACA" opacity="1.000000" stroke="none" 
	d="
M272.574097,194.950348 
	C274.054932,195.602646 275.136200,196.290558 276.560974,196.993469 
	C276.340607,200.992310 274.123413,197.982376 272.254089,198.048523 
	C270.911316,197.487350 269.941071,196.897430 268.970795,196.307510 
	C270.038696,195.867004 271.106628,195.426498 272.574097,194.950348 
z"/>
<path fill="#E3E2E3" opacity="1.000000" stroke="none" 
	d="
M275.328857,224.664825 
	C273.418243,224.782867 271.507629,224.900894 269.233521,225.056488 
	C266.758850,222.962433 268.078064,222.424713 270.544922,222.297150 
	C272.759247,222.651077 274.617798,222.962814 276.685730,223.574936 
	C276.895111,223.875336 276.845367,223.927094 276.535583,223.898987 
	C276.075439,223.986145 275.925110,224.101410 275.693909,224.287643 
	C275.613037,224.358612 275.328857,224.664825 275.328857,224.664825 
z"/>
<path fill="#9E9D9E" opacity="1.000000" stroke="none" 
	d="
M240.821213,286.609558 
	C240.732361,287.192535 240.465134,287.384949 239.791748,287.635895 
	C238.750397,287.809479 238.115189,287.924530 237.192261,288.063843 
	C236.528061,288.012970 236.151581,287.937805 235.775116,287.862640 
	C236.545456,286.598480 237.315796,285.334290 238.765900,283.979828 
	C239.925674,283.905945 240.405701,283.922363 240.885742,283.938782 
	C240.804764,284.698853 240.723801,285.458893 240.821213,286.609558 
z"/>
<path fill="#CACACA" opacity="1.000000" stroke="none" 
	d="
M268.658997,184.044830 
	C270.138611,183.784149 271.319763,183.591232 272.965088,183.524445 
	C273.651886,183.844482 273.887756,184.020660 274.136841,184.179092 
	C273.369659,185.271133 272.681152,186.435349 271.786285,187.410187 
	C271.525848,187.693893 270.675934,187.436493 269.984467,187.136978 
	C269.368622,185.935425 268.864563,185.024002 268.658997,184.044830 
z"/>
<path fill="#919191" opacity="1.000000" stroke="none" 
	d="
M157.130920,307.477173 
	C154.638107,307.678009 152.119919,307.496246 149.292358,307.065186 
	C151.690506,306.908752 154.398026,307.001648 157.130920,307.477173 
z"/>
<path fill="#B8B8B8" opacity="1.000000" stroke="none" 
	d="
M245.639984,128.164886 
	C241.354370,126.485985 245.133667,125.684998 245.813934,124.280136 
	C246.712189,124.933716 247.430634,125.841393 248.149063,126.749069 
	C247.441666,127.240608 246.734268,127.732147 245.639984,128.164886 
z"/>
<path fill="#999899" opacity="1.000000" stroke="none" 
	d="
M219.723419,302.046326 
	C219.873093,302.733490 219.672623,303.213623 219.252136,303.840942 
	C217.564743,303.747864 216.097336,303.507599 214.297180,303.084839 
	C213.964798,302.703857 213.952499,302.506195 213.921692,302.160034 
	C215.735031,301.953583 217.554153,301.896423 219.723419,302.046326 
z"/>
<path fill="#CACACA" opacity="1.000000" stroke="none" 
	d="
M268.672943,166.932068 
	C268.488312,166.986481 268.327362,167.081161 267.785889,167.459320 
	C266.925995,167.757736 266.470306,167.812927 266.014618,167.868134 
	C265.981171,167.674576 265.947754,167.481033 265.949768,166.847290 
	C265.985199,166.407089 266.181396,166.126541 266.181396,166.126541 
	C266.949768,165.400543 267.718140,164.674545 268.199585,163.597198 
	C267.912689,163.245850 267.999817,162.852722 267.999817,162.852722 
	C268.262604,162.610519 268.525391,162.368347 269.009094,161.963120 
	C269.910095,162.963303 270.590179,164.126511 270.838623,165.702393 
	C269.828979,166.387390 269.250946,166.659729 268.672943,166.932068 
z"/>
<path fill="#D7D7D7" opacity="1.000000" stroke="none" 
	d="
M274.704346,201.184448 
	C273.451935,201.553665 272.119171,201.651840 270.398102,201.858322 
	C268.210022,200.016479 268.990417,199.182571 271.642242,198.989014 
	C272.870575,199.619049 273.747284,200.266235 274.704346,201.184448 
z"/>
<path fill="#9E9D9E" opacity="1.000000" stroke="none" 
	d="
M268.997803,175.557632 
	C270.168701,175.406738 269.956909,171.412292 272.125275,174.672028 
	C271.985382,175.125198 271.972382,175.293259 271.984192,175.712921 
	C271.015900,176.507690 270.022766,177.050858 268.676941,177.349792 
	C268.324219,177.105560 268.318756,177.057571 268.536133,176.700226 
	C268.834930,176.081131 268.916351,175.819382 268.997803,175.557632 
z"/>
<path fill="#8B8B8B" opacity="1.000000" stroke="none" 
	d="
M256.463165,142.949188 
	C256.381989,141.692200 256.576782,140.399811 257.178711,138.994949 
	C259.577393,140.067398 260.579926,141.238403 257.413818,142.595734 
	C257.106689,142.863861 256.922913,142.888824 256.463165,142.949188 
z"/>
<path fill="#A8A8A8" opacity="1.000000" stroke="none" 
	d="
M224.070953,302.145966 
	C224.017105,301.889130 223.963242,301.632294 223.747345,300.721954 
	C223.016418,299.353027 222.447540,298.637604 221.878647,297.922180 
	C225.401596,294.805176 224.201492,300.002045 225.848511,300.776367 
	C225.253220,301.630615 224.662094,301.888306 224.070953,302.145966 
z"/>
<path fill="#AEADAE" opacity="1.000000" stroke="none" 
	d="
M234.629532,123.165718 
	C235.750641,123.855278 236.871735,124.544838 238.000427,125.631302 
	C237.346649,126.180405 236.685257,126.332611 235.988770,125.932083 
	C235.512283,124.641472 235.070908,123.903595 234.629532,123.165718 
z"/>
<path fill="#BCBBBC" opacity="1.000000" stroke="none" 
	d="
M268.292053,252.542389 
	C267.750610,251.712448 267.164703,250.532089 266.875549,249.126389 
	C268.074066,248.981491 268.975769,249.061951 270.366150,249.186005 
	C269.486664,250.433899 268.867126,251.312943 268.292053,252.542389 
z"/>
<path fill="#0E0E0E" opacity="1.000000" stroke="none" 
	d="
M234.350800,123.062012 
	C235.070908,123.903595 235.512283,124.641472 235.872604,125.699097 
	C234.531113,125.181709 233.270676,124.344574 231.906937,122.841034 
	C232.188431,121.800842 232.573227,121.427048 232.974487,121.048599 
	C232.990952,121.043930 232.988831,121.009789 232.988831,121.009789 
	C233.349899,121.659294 233.710968,122.308800 234.350800,123.062012 
z"/>
<path fill="#B1B1B1" opacity="1.000000" stroke="none" 
	d="
M268.970856,175.132416 
	C268.916351,175.819382 268.834930,176.081131 268.495361,176.682404 
	C267.091217,175.900970 265.945221,174.779999 265.210571,173.259872 
	C266.718964,173.192352 267.816010,173.523972 268.913025,173.855591 
	C268.923309,174.139450 268.933624,174.423325 268.970856,175.132416 
z"/>
<path fill="#919191" opacity="1.000000" stroke="none" 
	d="
M143.308777,332.018921 
	C144.662125,331.787537 146.309784,331.815247 148.115463,332.121460 
	C146.716690,332.359344 145.159897,332.318665 143.308777,332.018921 
z"/>
<path fill="#4D4C4D" opacity="1.000000" stroke="none" 
	d="
M221.485168,298.051147 
	C222.447540,298.637604 223.016418,299.353027 223.656616,300.338928 
	C223.080185,300.973389 222.432434,301.337341 221.525940,301.705444 
	C221.208694,300.533081 221.150192,299.356567 221.485168,298.051147 
z"/>
<path fill="#919191" opacity="1.000000" stroke="none" 
	d="
M142.121735,306.197205 
	C140.634628,306.359650 138.895630,306.258240 136.948639,305.853943 
	C138.450363,305.678436 140.160095,305.805878 142.121735,306.197205 
z"/>
<path fill="#919191" opacity="1.000000" stroke="none" 
	d="
M133.819794,330.681366 
	C134.947845,330.508026 136.217316,330.608429 137.754440,330.989960 
	C136.668472,331.165771 135.314850,331.060425 133.819794,330.681366 
z"/>
<path fill="#0E0E0E" opacity="1.000000" stroke="none" 
	d="
M228.985291,119.488724 
	C229.829987,118.786415 230.673615,118.377029 231.888336,118.350510 
	C232.404556,119.200638 232.549667,119.667908 232.389191,120.183388 
	C231.761917,120.484802 231.440247,120.738014 231.118576,120.991219 
	C230.407135,120.588020 229.695679,120.184830 228.985291,119.488724 
z"/>
<path fill="#A8A8A8" opacity="1.000000" stroke="none" 
	d="
M250.580185,268.866882 
	C251.885788,269.382202 252.911392,270.108124 253.874329,271.340942 
	C253.625412,271.891785 253.439194,271.935822 252.913773,271.918335 
	C251.693985,271.611877 250.813385,271.366943 249.932800,271.121979 
	C250.055267,270.440460 250.177719,269.758972 250.580185,268.866882 
z"/>
<path fill="#2B2B2B" opacity="1.000000" stroke="none" 
	d="
M249.898621,271.519592 
	C250.813385,271.366943 251.693985,271.611877 252.982712,272.218964 
	C253.362335,272.989990 253.333832,273.398895 253.305313,273.807770 
	C252.756561,273.877167 252.207825,273.946533 251.244080,274.022247 
	C250.829086,274.028564 250.432617,274.057953 250.432617,274.057953 
	C250.432617,274.057953 250.074982,273.884491 250.006073,273.699493 
	C249.912918,272.982086 249.888687,272.449646 249.898621,271.519592 
z"/>
<path fill="#E3E2E3" opacity="1.000000" stroke="none" 
	d="
M253.632126,273.868256 
	C253.333832,273.398895 253.362335,272.989990 253.321899,272.280518 
	C253.439194,271.935822 253.625412,271.891785 253.998871,271.629150 
	C254.712234,271.631592 255.238342,271.852661 256.046753,272.115295 
	C255.538986,272.747467 254.748962,273.338104 253.632126,273.868256 
z"/>
<path fill="#4D4C4D" opacity="1.000000" stroke="none" 
	d="
M224.972443,305.729767 
	C223.747604,305.671722 222.573685,305.263763 221.399750,304.855835 
	C222.039474,304.630157 222.679214,304.404510 223.915985,304.119080 
	C224.513031,304.059265 224.971298,303.975433 224.971298,303.975433 
	C224.988647,304.443573 225.006012,304.911713 224.972443,305.729767 
z"/>
<path fill="#2B2B2B" opacity="1.000000" stroke="none" 
	d="
M268.976562,173.506989 
	C267.816010,173.523972 266.718964,173.192352 265.262024,172.838409 
	C264.902130,172.816086 264.793335,172.584869 264.849243,172.469986 
	C266.069916,171.873016 267.234650,171.390930 268.707947,170.683960 
	C269.024353,171.358841 269.032257,172.258621 268.976562,173.506989 
z"/>
<path fill="#8B8B8B" opacity="1.000000" stroke="none" 
	d="
M242.398743,283.953491 
	C242.398743,283.953491 242.128433,283.817688 241.882202,283.488403 
	C241.409286,282.594360 241.182602,282.029602 240.955917,281.464813 
	C241.287903,280.891998 241.619873,280.319214 242.410049,280.015106 
	C242.913818,280.535614 242.959381,280.787445 242.952942,281.409302 
	C242.733536,282.504089 242.566132,283.228790 242.398743,283.953491 
z"/>
<path fill="#E3E2E3" opacity="1.000000" stroke="none" 
	d="
M232.694794,120.135178 
	C232.549667,119.667908 232.404556,119.200638 232.246490,118.354782 
	C232.924194,117.982605 233.614822,117.989021 234.653641,117.997322 
	C235.001816,117.999207 235.172699,118.348755 235.182037,118.543076 
	C234.658539,119.411194 234.125702,120.084984 233.290848,120.884277 
	C232.988831,121.009789 232.990952,121.043930 233.063812,120.874207 
	C233.151276,120.389000 233.003983,120.199234 232.694794,120.135178 
z"/>
<path fill="#CACACA" opacity="1.000000" stroke="none" 
	d="
M243.004944,281.039246 
	C242.959381,280.787445 242.913818,280.535614 242.668091,279.954956 
	C242.787964,279.172577 243.107986,278.719025 243.659760,278.107422 
	C244.101059,277.963074 244.310623,277.976776 244.834534,278.011353 
	C245.148895,278.032288 245.134796,278.431122 245.115021,279.013000 
	C245.056671,280.109283 245.018112,280.623627 244.658005,281.045288 
	C243.892624,280.981476 243.448776,281.010376 243.004944,281.039246 
z"/>
<path fill="#999899" opacity="1.000000" stroke="none" 
	d="
M207.416077,311.121399 
	C207.551758,310.511688 208.001129,309.807465 208.799561,309.048767 
	C209.243561,309.549072 209.338501,310.103851 209.236130,310.814941 
	C208.602463,310.989807 208.166092,311.008362 207.416077,311.121399 
z"/>
<path fill="#D7D7D7" opacity="1.000000" stroke="none" 
	d="
M253.962189,149.533844 
	C253.973129,148.781555 254.089386,148.315063 254.205643,147.848572 
	C254.816040,148.519302 255.426422,149.190033 255.868790,150.060730 
	C255.156342,150.113693 254.611923,149.966675 253.962189,149.533844 
z"/>
<path fill="#919191" opacity="1.000000" stroke="none" 
	d="
M225.243484,303.675415 
	C224.971298,303.975433 224.513031,304.059265 224.282410,304.090637 
	C224.052567,303.681427 224.053345,303.240875 224.062531,302.473145 
	C224.662094,301.888306 225.253220,301.630615 225.994308,301.077759 
	C226.624878,301.422211 227.105484,302.061829 227.586105,302.701416 
	C226.895966,302.926086 226.205826,303.150757 225.243484,303.675415 
z"/>
<path fill="#B1B1B1" opacity="1.000000" stroke="none" 
	d="
M250.853119,141.838989 
	C251.624481,142.337753 252.410797,142.862564 253.091537,143.698776 
	C252.985947,144.010193 252.998688,144.000732 252.692963,144.009247 
	C252.180908,144.031479 251.974579,144.045212 251.768265,144.058929 
	C251.421967,144.081360 251.176178,143.934982 251.005463,143.053223 
	C250.947617,142.260239 250.915268,142.033859 250.882904,141.807480 
	C250.882904,141.807480 250.868057,141.865051 250.853119,141.838989 
z"/>
<path fill="#4D4C4D" opacity="1.000000" stroke="none" 
	d="
M268.723938,167.281616 
	C269.250946,166.659729 269.828979,166.387390 270.722565,166.059494 
	C271.396698,166.385345 271.755249,166.766739 272.126251,167.421295 
	C271.672424,167.804108 271.206177,167.913773 270.390808,168.110916 
	C269.619446,168.009323 269.197174,167.820251 268.723938,167.281616 
z"/>
<path fill="#B8B8B8" opacity="1.000000" stroke="none" 
	d="
M235.544296,287.855286 
	C236.151581,287.937805 236.528061,288.012970 237.320328,288.299316 
	C237.782150,288.683289 237.828156,288.856049 237.874146,289.028778 
	C237.671600,289.042419 237.469055,289.056030 236.968765,289.138245 
	C236.288513,289.176453 235.906006,289.146057 235.235168,289.097656 
	C235.069046,288.669037 235.191254,288.258484 235.544296,287.855286 
z"/>
<path fill="#A8A8A8" opacity="1.000000" stroke="none" 
	d="
M232.389191,120.183388 
	C233.003983,120.199234 233.151276,120.389000 233.047333,120.878868 
	C232.573227,121.427048 232.188431,121.800842 231.867737,122.480186 
	C231.738800,122.339752 231.545792,121.893761 231.235672,121.219490 
	C231.440247,120.738014 231.761917,120.484802 232.389191,120.183388 
z"/>
<path fill="#4D4C4D" opacity="1.000000" stroke="none" 
	d="
M274.372437,237.860748 
	C273.653625,237.579407 273.233398,237.161743 272.848053,236.431198 
	C273.478943,236.653687 274.074982,237.189056 274.372437,237.860748 
z"/>
<path fill="#919191" opacity="1.000000" stroke="none" 
	d="
M128.693024,329.907104 
	C129.227966,329.675781 129.865112,329.661652 130.756012,329.870056 
	C130.271576,330.103149 129.533386,330.113739 128.693024,329.907104 
z"/>
<path fill="#919191" opacity="1.000000" stroke="none" 
	d="
M132.768967,304.897614 
	C132.275482,305.092590 131.557037,305.058990 130.790070,304.780731 
	C131.342377,304.580383 131.943192,304.624725 132.768967,304.897614 
z"/>
<path fill="#A3A2A3" opacity="1.000000" stroke="none" 
	d="
M192.351532,321.964783 
	C192.493332,321.264252 192.972107,320.622192 193.783966,319.978577 
	C194.035690,320.429932 193.954330,320.882874 193.967041,321.654480 
	C194.061142,321.973206 194.041916,321.923553 194.041916,321.923553 
	C193.590790,321.956787 193.139664,321.990021 192.351532,321.964783 
z"/>
<path fill="#A3A2A3" opacity="1.000000" stroke="none" 
	d="
M188.010086,321.540375 
	C188.513718,321.276520 189.197571,321.258545 189.928986,321.539124 
	C189.381119,321.820557 188.785721,321.803406 188.010086,321.540375 
z"/>
<path fill="#D7D7D7" opacity="1.000000" stroke="none" 
	d="
M251.844803,144.360001 
	C251.974579,144.045212 252.180908,144.031479 252.697052,144.003357 
	C253.121613,144.677444 253.236343,145.365936 253.079071,146.080139 
	C252.511826,145.624268 252.216583,145.142670 251.844803,144.360001 
z"/>
<path fill="#CACACA" opacity="1.000000" stroke="none" 
	d="
M240.656113,281.631531 
	C241.182602,282.029602 241.409286,282.594360 241.735245,283.452698 
	C241.834503,283.746216 241.378845,283.934723 241.132294,283.936768 
	C240.405701,283.922363 239.925674,283.905945 239.085602,283.921448 
	C239.269135,283.235016 239.812729,282.516632 240.656113,281.631531 
z"/>
<path fill="#F6F5F6" opacity="1.000000" stroke="none" 
	d="
M274.383606,184.136673 
	C273.887756,184.020660 273.651886,183.844482 273.326721,183.456757 
	C273.645782,183.192169 274.067413,183.121384 274.801483,182.976929 
	C275.280731,183.241043 275.447571,183.578796 275.371704,184.028351 
	C274.962769,184.124847 274.796570,184.109558 274.383606,184.136673 
z"/>
<path fill="#CACACA" opacity="1.000000" stroke="none" 
	d="
M266.536865,236.954803 
	C266.980530,236.925125 267.146179,236.975082 267.700043,237.345093 
	C268.091370,238.121780 268.094482,238.578415 268.097595,239.035034 
	C267.872498,239.025970 267.647369,239.016907 267.085693,238.976532 
	C266.585724,238.308289 266.422302,237.671356 266.536865,236.954803 
z"/>
<path fill="#9E9D9E" opacity="1.000000" stroke="none" 
	d="
M275.774780,224.216675 
	C275.925110,224.101410 276.075439,223.986145 276.509949,223.873840 
	C276.623291,224.159256 276.397705,224.387619 276.050629,224.796387 
	C275.983917,225.030869 276.010132,225.037674 276.021606,224.819244 
	C276.033081,224.600800 275.774780,224.216675 275.774780,224.216675 
z"/>
<path fill="#A8A8A8" opacity="1.000000" stroke="none" 
	d="
M202.944778,316.052826 
	C202.920975,316.042145 203.084045,316.182098 203.084045,316.182098 
	C203.084045,316.182098 203.034027,315.961945 203.010834,316.037567 
	C202.987656,316.113190 202.968582,316.063507 202.944778,316.052826 
z"/>
<path fill="#D7D7D7" opacity="1.000000" stroke="none" 
	d="
M250.600403,141.920776 
	C250.915268,142.033859 250.947617,142.260239 250.968262,142.829437 
	C250.743652,142.792877 250.530777,142.413483 250.600403,141.920776 
z"/>
<path fill="#A3A2A3" opacity="1.000000" stroke="none" 
	d="
M194.085770,321.983948 
	C194.110397,321.994690 194.056992,322.147034 194.056992,322.147034 
	C194.056992,322.147034 194.186340,321.943726 194.114136,321.933655 
	C194.041916,321.923553 194.061142,321.973206 194.085770,321.983948 
z"/>
<path fill="#030303" opacity="1.000000" stroke="none" 
	d="
M179.648651,320.792053 
	C179.595749,322.147736 179.244766,323.642212 178.746887,325.762207 
	C178.095612,324.337006 177.720337,323.515778 177.216064,322.414001 
	C177.841568,321.732574 178.596085,321.331726 179.648651,320.792053 
z"/>
<path fill="#030303" opacity="1.000000" stroke="none" 
	d="
M169.199066,322.535522 
	C168.406525,322.217682 168.024994,321.813263 167.643448,321.408813 
	C168.026642,321.149567 168.409821,320.890350 168.793015,320.631104 
	C169.065369,321.237030 169.337723,321.842957 169.199066,322.535522 
z"/>
<path fill="#030303" opacity="1.000000" stroke="none" 
	d="
M186.745789,317.616211 
	C186.099762,317.986084 185.355347,318.031006 184.236877,318.082764 
	C184.791000,317.823425 185.719208,317.557312 186.745789,317.616211 
z"/>
<path fill="#8B8B8B" opacity="1.000000" stroke="none" 
	d="
M268.341919,239.223450 
	C268.094482,238.578415 268.091370,238.121780 267.959534,237.347412 
	C268.960724,237.029663 270.090637,237.029663 271.220520,237.029663 
	C271.395081,237.565125 271.569641,238.100571 271.744171,238.636032 
	C270.691528,238.894638 269.638855,239.153259 268.341919,239.223450 
z"/>
<path fill="#030303" opacity="1.000000" stroke="none" 
	d="
M275.693909,224.287643 
	C275.774780,224.216675 276.033081,224.600800 276.027863,224.832306 
	C276.022644,225.063812 275.752747,224.730408 275.540802,224.697617 
	C275.328857,224.664825 275.613037,224.358612 275.693909,224.287643 
z"/>
<path fill="#999899" opacity="1.000000" stroke="none" 
	d="
M212.584320,304.425537 
	C212.646912,304.505005 212.412582,304.532104 212.412582,304.532104 
	C212.412582,304.532104 212.521744,304.346039 212.584320,304.425537 
z"/>
<path fill="#999899" opacity="1.000000" stroke="none" 
	d="
M207.995483,304.784607 
	C207.807129,304.826477 207.642914,304.646149 207.513962,304.443420 
	C207.499084,304.420044 207.680511,304.271851 207.963898,304.145935 
	C208.156876,304.110352 208.030136,304.555695 207.995483,304.784607 
z"/>
<path fill="#030303" opacity="1.000000" stroke="none" 
	d="
M258.551239,150.724915 
	C258.274231,150.707047 258.218872,150.484741 258.163483,150.262451 
	C258.366608,150.348480 258.569733,150.434494 258.551239,150.724915 
z"/>
<path fill="#747474" opacity="1.000000" stroke="none" 
	d="
M265.995911,165.851807 
	C266.181396,166.126541 265.985199,166.407089 265.902649,166.556458 
	C265.431000,166.756134 265.041901,166.806427 264.360016,166.886108 
	C264.648315,166.469345 265.229401,166.023193 265.995911,165.851807 
z"/>
<path fill="#F6F5F6" opacity="1.000000" stroke="none" 
	d="
M267.710388,162.906876 
	C267.999817,162.852722 267.912689,163.245850 267.877075,163.443970 
	C267.222137,163.681931 266.602814,163.721756 265.983490,163.761566 
	C265.956085,163.600433 265.928680,163.439285 265.901245,163.278137 
	C266.407806,163.172440 266.914368,163.066727 267.710388,162.906876 
z"/>
<path fill="#8B8B8B" opacity="1.000000" stroke="none" 
	d="
M244.979553,281.138000 
	C245.018112,280.623627 245.056671,280.109283 245.146362,279.210083 
	C246.568665,280.308899 250.330841,281.514679 245.433655,283.473450 
	C245.062897,282.551544 245.021225,281.844788 244.979553,281.138000 
z"/>
<path fill="#030303" opacity="1.000000" stroke="none" 
	d="
M244.658020,281.045288 
	C245.021225,281.844788 245.062897,282.551544 245.139038,283.614807 
	C244.557159,283.983887 243.940826,283.996460 242.861603,283.981262 
	C242.566132,283.228790 242.733536,282.504089 242.952942,281.409302 
	C243.448776,281.010376 243.892624,280.981476 244.658020,281.045288 
z"/>
<path fill="#BCBBBC" opacity="1.000000" stroke="none" 
	d="
M263.540588,250.547943 
	C263.481720,250.582458 263.599487,250.513412 263.540588,250.547943 
z"/>
<path fill="#2B2B2B" opacity="1.000000" stroke="none" 
	d="
M238.230072,289.084412 
	C237.828156,288.856049 237.782150,288.683289 237.608063,288.275024 
	C238.115189,287.924530 238.750397,287.809479 239.684906,287.862518 
	C239.518158,288.400452 239.052078,288.770264 238.230072,289.084412 
z"/>
<path fill="#4D4C4D" opacity="1.000000" stroke="none" 
	d="
M265.771362,168.110519 
	C266.470306,167.812927 266.925995,167.757736 267.700806,167.571930 
	C267.189362,167.745178 266.358734,168.049042 265.771362,168.110519 
z"/>
</svg>